<svg width="92" height="46" viewBox="0 0 92 46" fill="none" xmlns="http://www.w3.org/2000/svg">
<path d="M20.6719 36.6133C20.2969 36.6133 19.8809 36.5254 19.4238 36.3496C18.4043 35.9863 17.3672 34.7676 16.3125 32.6934L15.3984 30.9004C15.3398 30.9004 14.7773 31.4043 13.7109 32.4121C12.1289 33.9473 10.7812 34.8262 9.66797 35.0488C9.35156 35.1191 8.83008 35.1543 8.10352 35.1543C7.16602 35.1543 6.38672 35.0254 5.76562 34.7676C5.14453 34.5098 4.5 34.0293 3.83203 33.3262C2.60156 32.0605 1.65234 30.2441 0.984375 27.877C0.328125 25.5098 0 22.8848 0 20.002C0 17.6582 0.234375 15.2441 0.703125 12.7598C1.10156 10.5801 1.78125 8.5293 2.74219 6.60742C3.86719 4.43945 5.30859 2.89258 7.06641 1.9668C7.37109 1.81445 7.63477 1.70312 7.85742 1.63281C8.0918 1.5625 8.36133 1.51562 8.66602 1.49219C8.9707 1.46875 9.39844 1.45703 9.94922 1.45703C10.5 1.45703 10.9219 1.46875 11.2148 1.49219C11.5195 1.51562 11.7773 1.5625 11.9883 1.63281C12.1992 1.70312 12.4336 1.80859 12.6914 1.94922C15.1055 3.15625 16.6875 5.68164 17.4375 9.52539C17.543 10.041 17.666 10.5391 17.8066 11.0195C17.959 11.4883 18.0879 11.834 18.1934 12.0566C18.4512 12.5605 18.5801 13.082 18.5801 13.6211C18.5801 14.1953 18.4453 14.7402 18.1758 15.2559C17.918 15.7715 17.543 16.1934 17.0508 16.5215C16.7578 16.7207 16.4883 16.8496 16.2422 16.9082C16.0078 16.9668 15.6387 16.9961 15.1348 16.9961C12.6855 16.9961 11.1562 15.25 10.5469 11.7578C10.1953 9.83594 9.9375 8.875 9.77344 8.875C9.66797 8.875 9.48047 9.14453 9.21094 9.68359C8.94141 10.2227 8.68945 10.8203 8.45508 11.4766C8.0332 12.707 7.75195 13.832 7.61133 14.8516C7.48242 15.8711 7.41797 17.4297 7.41797 19.5273C7.41797 21.5195 7.4707 23.002 7.57617 23.9746C7.68164 24.9355 7.9043 25.8672 8.24414 26.7695L8.49023 27.4727C8.91211 27.0391 9.1582 26.7754 9.22852 26.6816C9.36914 26.5293 9.48633 26.4004 9.58008 26.2949C9.68555 26.1895 9.85547 26.002 10.0898 25.7324C9.87891 25.5215 9.66797 25.3223 9.45703 25.1348C9.25781 24.9473 9.06445 24.7129 8.87695 24.4316C8.44336 23.7988 8.22656 23.2363 8.22656 22.7441C8.22656 22.5098 8.27344 22.2168 8.36719 21.8652C8.68359 20.4707 9.63867 19.5215 11.2324 19.0176C12.0879 18.7598 13.3125 18.4668 14.9062 18.1387C16.5 17.7988 18.0586 17.5 19.582 17.2422C21.1172 16.9727 22.125 16.8379 22.6055 16.8379C23.8359 16.8379 24.7969 17.0957 25.4883 17.6113C26.1914 18.1152 26.584 18.8477 26.666 19.8086L26.6836 20.2656C26.6836 20.7109 26.6016 21.0977 26.4375 21.4258C26.2734 21.7539 25.9922 22.0938 25.5938 22.4453C25.207 22.7969 24.791 23.0723 24.3457 23.2715C23.8301 23.5059 22.9453 23.7402 21.6914 23.9746C21.2695 24.0566 20.9766 24.1152 20.8125 24.1504C20.6602 24.1738 20.584 24.2441 20.584 24.3613C20.584 24.5723 20.7715 25.1289 21.1465 26.0312C21.7324 27.4609 22.3066 28.7734 22.8691 29.9688C23.291 30.8477 23.5898 31.5215 23.7656 31.9902C23.9414 32.459 24.0293 32.8633 24.0293 33.2031C24.0293 33.4727 23.9883 33.748 23.9062 34.0293C23.6602 35.084 23.0566 35.8164 22.0957 36.2266C21.5918 36.4844 21.1172 36.6133 20.6719 36.6133ZM31.5 41.5879C30.9844 41.5879 30.4746 41.4473 29.9707 41.166C29.3496 40.8262 28.7812 40.1875 28.2656 39.25C27.75 38.3125 27.3516 37.2109 27.0703 35.9453C26.9414 35.2305 26.8418 33.6309 26.7715 31.1465C26.7129 28.6504 26.6836 25.8262 26.6836 22.6738C26.6836 18.5137 26.7305 14.5117 26.8242 10.668C26.9297 6.82422 27.0762 4.41602 27.2637 3.44336C27.334 3.15039 27.4395 2.83984 27.5801 2.51172C27.7207 2.18359 27.8613 1.91406 28.002 1.70312C28.3887 1.16406 28.8457 0.765625 29.373 0.507812C29.9121 0.238281 30.4629 0.103516 31.0254 0.103516C31.6582 0.103516 32.2559 0.267578 32.8184 0.595703C33.3809 0.912109 33.832 1.38672 34.1719 2.01953C34.3125 2.28906 34.418 2.55859 34.4883 2.82812C34.5586 3.09766 34.5938 3.4668 34.5938 3.93555C34.5938 4.65039 34.5234 5.78711 34.3828 7.3457C34.2539 9.25586 34.125 11.6465 33.9961 14.5176C33.8906 17.6699 33.8379 21.8125 33.8379 26.9453C33.8379 28.5039 33.8438 29.834 33.8555 30.9355C33.8789 32.0254 33.9082 32.6641 33.9434 32.8516C33.9902 33.0391 34.0781 33.1328 34.207 33.1328L34.3301 33.0977C34.7168 32.957 35.3848 32.8867 36.334 32.8867C36.9199 32.8867 37.3828 32.9277 37.7227 33.0098C38.6602 33.3496 39.3457 33.959 39.7793 34.8379C39.9785 35.2949 40.0781 35.7402 40.0781 36.1738C40.0781 37.0059 39.7148 37.791 38.9883 38.5293C38.6953 38.8223 38.3789 39.0566 38.0391 39.2324C37.7109 39.4199 37.2012 39.6191 36.5098 39.8301C35.3613 40.1934 34.4004 40.5742 33.627 40.9727C32.8535 41.3828 32.1445 41.5879 31.5 41.5879ZM45.334 34.3633C44.584 34.3633 44.0039 34.2988 43.5938 34.1699C40.793 33.291 38.9004 31.3047 37.916 28.2109C37.7168 27.4609 37.6172 26.5938 37.6172 25.6094C37.6172 22.9961 38.2676 20.6758 39.5684 18.6484C40.2363 17.6055 40.9336 16.9258 41.6602 16.6094C41.8594 16.5391 42.0117 16.4336 42.1172 16.293C42.2227 16.1406 42.3105 15.9062 42.3809 15.5898C42.6152 14.7227 43.043 14.0605 43.6641 13.6035C44.2852 13.1465 44.9707 12.918 45.7207 12.918C46.2598 12.918 46.793 13.041 47.3203 13.2871C47.8477 13.5215 48.334 13.8906 48.7793 14.3945C49.0371 14.7109 49.3828 15.2734 49.8164 16.082C50.25 16.8789 50.6777 17.7344 51.0996 18.6484C51.5215 19.5625 51.8379 20.3477 52.0488 21.0039C52.5527 22.5977 52.8047 24.1152 52.8047 25.5566C52.8047 27.373 52.4238 28.9961 51.6621 30.4258C50.9121 31.8555 49.8223 32.9336 48.3926 33.6602C47.8652 33.9297 47.4258 34.1113 47.0742 34.2051C46.7227 34.2871 46.2773 34.334 45.7383 34.3457L45.334 34.3633ZM45.2812 27.1562C45.4688 27.1562 45.5977 26.7637 45.668 25.9785L45.6855 25.627C45.6855 25.0293 45.6328 24.4961 45.5273 24.0273C45.4336 23.4648 45.3457 23.1836 45.2637 23.1836C45.2168 23.1836 45.1699 23.2363 45.123 23.3418C45.041 23.5176 44.9766 23.8223 44.9297 24.2559C44.8828 24.6895 44.8594 25.1289 44.8594 25.5742C44.8594 26.2656 44.9062 26.7051 45 26.8926C45.1055 27.0684 45.1992 27.1562 45.2812 27.1562ZM71.7715 38.7402C71.2441 38.7402 70.7637 38.6816 70.3301 38.5645C68.8301 37.9551 67.5352 36.2969 66.4453 33.5898C66.3281 33.2852 66.2168 33.0273 66.1113 32.8164C66.0059 32.6055 65.9355 32.5 65.9004 32.5C65.8184 32.5 65.6895 32.6289 65.5137 32.8867C65.2676 33.2148 64.752 33.7715 63.9668 34.5566C62.5254 36.0566 61.1426 36.8066 59.8184 36.8066C59.4082 36.8066 58.998 36.7363 58.5879 36.5957C57.2988 36.127 56.373 35.1895 55.8105 33.7832C55.377 32.541 54.9785 30.6133 54.6152 28C54.2168 25.0938 54.0117 22.4922 54 20.1953C54 19.6562 54.0234 19.2578 54.0703 19C54.1289 18.7422 54.2285 18.4844 54.3691 18.2266C54.6855 17.6523 55.1133 17.2129 55.6523 16.9082C56.2031 16.6035 56.7773 16.4512 57.375 16.4512C58.125 16.4512 58.8223 16.709 59.4668 17.2246C59.8184 17.5293 60.082 17.8516 60.2578 18.1914C60.4453 18.5195 60.5918 19.041 60.6973 19.7559C60.8027 20.4707 60.9141 21.543 61.0312 22.9727C61.2656 25.5625 61.4004 26.9043 61.4355 26.998C61.5059 26.9746 62.0391 26.4121 63.0352 25.3105C63.8789 24.3613 64.5938 23.6934 65.1797 23.3066C65.7773 22.9199 66.4043 22.7266 67.0605 22.7266L67.4121 22.7441C68.3262 22.8027 69.0762 23.1484 69.6621 23.7812C70.2598 24.4141 70.8223 25.4688 71.3496 26.9453L72.0176 28.7207L72.2637 27.9121C72.7441 26.3418 73.248 24.5781 73.7754 22.6211C74.1152 21.3555 74.3848 20.3945 74.584 19.7383C74.7832 19.082 74.9648 18.5957 75.1289 18.2793C75.3047 17.9512 75.5098 17.6582 75.7441 17.4004C76.3301 16.6504 77.1328 16.2754 78.1523 16.2754L78.6094 16.293C79.4414 16.3867 80.127 16.7324 80.666 17.3301C81.2051 17.916 81.4746 18.625 81.4746 19.457C81.4746 19.7969 81.2754 20.8164 80.877 22.5156C80.4785 24.2031 80.0449 25.9199 79.5762 27.666C77.8418 34.0762 75.7207 37.7031 73.2129 38.5469C72.8027 38.6758 72.3223 38.7402 71.7715 38.7402ZM86.3613 38.1426C86.0918 38.1426 85.8105 38.1016 85.5176 38.0195C85.1777 37.9141 84.832 37.6914 84.4805 37.3516C84.1406 37.0234 83.8535 36.6367 83.6191 36.1914C83.3379 35.7812 83.1973 34.7676 83.1973 33.1504C83.1973 31.6387 83.3203 29.3652 83.5664 26.3301C84.1172 19.6035 84.3926 15.209 84.3926 13.1465C84.3926 12.4316 84.3633 11.9102 84.3047 11.582C84.2812 11.4062 84.2695 11.2305 84.2695 11.0547C84.2695 10.3164 84.4512 9.61914 84.8145 8.96289C85.1777 8.30664 85.6641 7.82031 86.2734 7.50391C86.8945 7.17578 87.4922 7.01172 88.0664 7.01172C88.8984 7.01172 89.6777 7.3457 90.4043 8.01367C90.8848 8.44727 91.2188 8.95117 91.4062 9.52539C91.6055 10.0996 91.7051 10.8965 91.7051 11.916C91.7051 12.8535 91.5879 14.9688 91.3535 18.2617C91.1191 21.543 90.8613 24.748 90.5801 27.877C90.3105 30.9941 90.0996 33.0098 89.9473 33.9238C89.7012 35.248 89.2559 36.2793 88.6113 37.0176C87.9668 37.7676 87.2168 38.1426 86.3613 38.1426ZM85.5 45.8594C85.1602 45.8594 84.8262 45.8125 84.498 45.7188C83.666 45.4492 83.0156 44.9922 82.5469 44.3477C82.0781 43.7031 81.8438 43 81.8438 42.2383C81.8438 41.6055 82.0195 40.9902 82.3711 40.3926C82.7227 39.8066 83.1738 39.3555 83.7246 39.0391C84.2754 38.7344 84.8672 38.582 85.5 38.582C86.6484 38.6289 87.5684 39.0273 88.2598 39.7773C88.8809 40.4453 89.1914 41.248 89.1914 42.1855C89.1914 42.4902 89.1562 42.8008 89.0859 43.1172C88.8633 43.9375 88.4121 44.5996 87.7324 45.1035C87.0645 45.6074 86.3203 45.8594 85.5 45.8594Z" fill="#FF678E"/>
</svg>
